<svg id="Capa_1" data-name="Capa 1" xmlns="http://www.w3.org/2000/svg" viewBox="0 0 394.94 394.93"><defs><style>.cls-1{fill:#ffd300;}.cls-2{fill:#221c10;}.cls-3{fill:#e6392e;}</style></defs><title>deutsche Flagge</title><path class="cls-1" d="M5.83,150C32,44.17,139.07-20.37,244.9,5.83S415.3,139,389.11,244.89,255.89,415.3,150,389.1-20.38,255.88,5.83,150"/><path class="cls-2" d="M11.51,131.15H383.44A197.18,197.18,0,0,0,244.9,5.83C145.52-18.77,45.07,36.64,11.51,131.15"/><path class="cls-3" d="M390.67,238.05l.26-1.26q.23-1.1.43-2.2c.08-.42.16-.85.24-1.28.14-.76.28-1.52.41-2.28.07-.38.13-.77.2-1.15q.24-1.42.45-2.85l.09-.56q.26-1.71.48-3.42c0-.3.08-.6.11-.9q.16-1.26.31-2.51.07-.6.13-1.19.12-1.12.23-2.25c0-.41.08-.83.12-1.24.07-.76.13-1.51.19-2.27,0-.39.06-.77.09-1.15q.09-1.3.17-2.61c0-.26,0-.53,0-.79q.09-1.71.16-3.42c0-.19,0-.37,0-.56q0-1.42.08-2.83c0-.36,0-.72,0-1.07,0-.78,0-1.55,0-2.33,0-.39,0-.78,0-1.17,0-.76,0-1.52,0-2.28,0-.38,0-.75,0-1.13,0-.83,0-1.67-.07-2.5,0-.29,0-.58,0-.87q-.13-3.39-.37-6.76c0-.29,0-.59-.07-.89q-.09-1.23-.2-2.46l-.1-1.07q-.11-1.16-.23-2.32l-.12-1.06q-.14-1.23-.29-2.46c0-.29-.07-.57-.11-.86q-.43-3.36-1-6.68l-.1-.6q-.22-1.35-.47-2.69l-.17-.92q-.22-1.2-.46-2.4l-.19-1q-.25-1.23-.52-2.46l-.18-.81q-.33-1.5-.69-3l-.05-.23c-.25-1-.51-2.09-.78-3.13h0q-2.24-8.68-5.25-17.09H11.51Q8.24,140.35,5.83,150a196.71,196.71,0,0,0-3.38,78.41l.05.34q.22,1.39.47,2.77l.1.58q.23,1.3.48,2.59l.15.77q.24,1.22.49,2.44l.2.92c.16.77.33,1.54.51,2.3.08.36.17.71.25,1.07.17.72.33,1.44.51,2.15.13.54.27,1.08.41,1.62q.31,1.22.63,2.43t.65,2.39c.1.35.2.7.3,1,.22.75.43,1.51.66,2.26l.32,1.05c.23.75.46,1.49.7,2.24l.33,1q.37,1.13.74,2.25l.35,1q.39,1.13.79,2.25l.18.53h0c.17.46.33.93.5,1.39H382.67c.17-.46.32-.93.49-1.39h0c.41-1.16.81-2.32,1.21-3.49l.12-.34q.77-2.28,1.49-4.6l.2-.65c.44-1.44.86-2.89,1.27-4.35.09-.31.18-.61.26-.91q.72-2.61,1.38-5.24.42-1.7.81-3.41c.08-.37.16-.73.24-1.09q.26-1.17.51-2.34"/></svg>