<svg id="Capa_1" data-name="Capa 1" xmlns="http://www.w3.org/2000/svg" xmlns:xlink="http://www.w3.org/1999/xlink" viewBox="0 0 435.68 415.3"><defs><style>.cls-1{fill:none;}.cls-2{fill:url(#linear-gradient);}.cls-3{clip-path:url(#clip-path);}.cls-4{fill:url(#radial-gradient);}.cls-5{fill:#24356b;}.cls-6{fill:#f5f1ee;}.cls-7{fill:#e52a18;}.cls-8{fill:#333a63;}</style><linearGradient id="linear-gradient" x1="-3244.18" y1="2298.2" x2="-3244.18" y2="2298.2" gradientTransform="matrix(-44.23, -70.78, -70.78, 44.23, 19323.47, -331263.33)" gradientUnits="userSpaceOnUse"><stop offset="0" stop-color="#f5f1ee"/><stop offset="0.33" stop-color="#f5f1ee"/><stop offset="0.75" stop-color="#f6f3f0"/><stop offset="0.91" stop-color="#faf8f7"/><stop offset="1" stop-color="#fff"/></linearGradient><clipPath id="clip-path" transform="translate(0 -48.55)"><path class="cls-1" d="M217.68,48.56c-88.63,0-169.22,60.11-191.47,150C0,304.44,64.57,411.47,170.41,437.65s212.88-38.36,239.08-144.21S371.14,80.57,265.28,54.39a197.8,197.8,0,0,0-47.58-5.83h0"/></clipPath><radialGradient id="radial-gradient" cx="-3243.33" cy="2312.59" r="1" gradientTransform="matrix(197.47, 0, 0, -197.47, 640670.99, 456859.07)" gradientUnits="userSpaceOnUse"><stop offset="0" stop-color="#fff"/><stop offset="0.78" stop-color="#fff"/><stop offset="0.82" stop-color="#f9f8f8"/><stop offset="0.88" stop-color="#e9e6e3"/><stop offset="0.96" stop-color="#cfc8c2"/><stop offset="1" stop-color="#bfb6ad"/></radialGradient></defs><title>britische Flagge</title><path class="cls-2" d="M141.67,0" transform="translate(0 -48.55)"/><g class="cls-3"><rect class="cls-4" width="435.68" height="415.3"/></g><path class="cls-5" d="M26.21,198.59C52.4,92.72,159.44,28.19,265.28,54.39S435.68,187.6,409.49,293.45,276.27,463.86,170.41,437.65,0,304.44,26.21,198.59" transform="translate(0 -48.55)"/><path class="cls-6" d="M357.9,106.82l-79.39,52.92V58.16q-6.5-2.09-13.23-3.77A196.5,196.5,0,0,0,156.67,58.3V159.76L77.59,107a196.1,196.1,0,0,0-42.82,65.07l20.94,14h-26c-1.3,4.1-2.5,8.27-3.55,12.51a196.43,196.43,0,0,0,4.15,109.33H56.23L35.51,321.73A198.43,198.43,0,0,0,79,386.37l77.7-51.79v99.14q6.75,2.19,13.75,3.94a196.47,196.47,0,0,0,108.09-3.75V334.58l78,52A196.12,196.12,0,0,0,400.09,322l-21.15-14.1h26.38q2.34-7.1,4.17-14.48A196.55,196.55,0,0,0,406,186.08H379.46l21.35-14.23a198.37,198.37,0,0,0-42.92-65" transform="translate(0 -48.55)"/><path class="cls-7" d="M126.3,186.08,53,137.32a195.79,195.79,0,0,0-13.18,23.3l38.27,25.46Zm256.1-49.14a198.29,198.29,0,0,0-16.26-21.27l-87.63,58.28v12.14h30ZM53.53,355.46a198.13,198.13,0,0,0,16.3,21.22l86.83-57.75v-11H125Zm358.73-144H253.13V51.79a196.36,196.36,0,0,0-71.09,0V211.46H23.49a196.28,196.28,0,0,0,.3,71.06H182V440.16a196.32,196.32,0,0,0,71.09.15V282.52H411.86a196.38,196.38,0,0,0,.4-71.06M310.21,307.92l71.84,47.78a195.79,195.79,0,0,0,13.31-23.22l-36.93-24.56Z" transform="translate(0 -48.55)"/><path class="cls-8" d="M278.51,78.71h0V91.51a22.79,22.79,0,0,0,1.19-6.89,14.44,14.44,0,0,0-1.19-5.92" transform="translate(0 -48.55)"/></svg>