<svg xmlns="http://www.w3.org/2000/svg" viewBox="0 0 109.67 109.67"><defs><style>.cls-1{fill:#a29e9f;}.cls-2{fill:#f1f2f2;}</style></defs><title>LinkedIn Icon</title><g id="objects"><circle class="cls-1" cx="54.83" cy="54.83" r="54.83"/><path class="cls-2" d="M86.34,59.21V81H73.69V60.67c0-5.11-1.83-8.6-6.41-8.6a6.92,6.92,0,0,0-6.49,4.63,8.66,8.66,0,0,0-.42,3.08V81H47.72s.17-34.49,0-38.06H60.37v5.39l-.08.13h.08v-.12a12.56,12.56,0,0,1,11.4-6.29c8.33,0,14.57,5.44,14.57,17.13ZM34.48,24.63c-4.33,0-7.16,2.84-7.16,6.57s2.75,6.58,7,6.58h.08c4.41,0,7.16-2.92,7.16-6.58s-2.74-6.57-7.07-6.57ZM28.07,81H40.72V43H28.07Zm0,0"/></g></svg>